<?xml version="1.0" standalone="no"?>
<!DOCTYPE svg PUBLIC "-//W3C//DTD SVG 20010904//EN"
 "http://www.w3.org/TR/2001/REC-SVG-20010904/DTD/svg10.dtd">
<svg version="1.0" xmlns="http://www.w3.org/2000/svg"
 width="500.000000pt" height="500.000000pt" viewBox="0 0 500.000000 500.000000"
 preserveAspectRatio="xMidYMid meet">

<g transform="translate(0.000000,500.000000) scale(0.100000,-0.100000)"
fill="#000000" stroke="none">
<path d="M2340 3550 c-11 -11 -31 -22 -45 -26 -14 -3 -28 -11 -32 -17 -4 -7 0
-8 13 -2 10 4 38 12 62 17 33 8 40 13 33 22 -6 7 -8 16 -4 19 3 4 3 7 0 7 -4
0 -16 -9 -27 -20z"/>
<path d="M2130 3510 c-8 -5 -26 -10 -41 -10 -14 0 -43 -13 -65 -29 -42 -31
-109 -62 -117 -54 -8 7 -77 -31 -143 -80 -79 -58 -271 -231 -327 -294 -50 -55
-117 -152 -117 -168 0 -6 -9 -30 -20 -53 -11 -22 -20 -47 -20 -55 0 -7 -17
-49 -39 -93 -25 -53 -48 -123 -65 -202 -14 -67 -26 -125 -26 -128 0 -3 -5 -2
-12 2 -7 5 -8 3 -2 -7 5 -8 9 -71 10 -140 2 -152 6 -169 40 -167 23 2 35 28
13 28 -8 0 -9 11 -5 31 4 19 1 38 -6 46 -9 11 -9 16 0 22 7 4 10 15 6 24 -3
10 -1 24 6 32 11 14 9 67 -6 148 -4 20 -2 27 10 27 19 0 19 9 6 78 -7 39 -6
60 5 89 l14 38 0 -69 c1 -58 3 -67 15 -57 8 7 19 27 25 44 10 29 9 30 -4 13
-14 -19 -15 -18 -15 16 0 41 17 94 27 84 7 -6 42 60 43 80 0 6 9 23 21 38 l20
26 -21 0 c-11 0 -23 7 -26 15 -8 19 14 47 29 38 5 -3 7 -1 4 4 -4 6 2 18 12
27 18 16 20 16 23 1 4 -20 61 76 72 120 8 31 128 161 157 170 9 3 20 17 23 31
6 23 76 107 76 91 0 -8 53 36 78 65 9 9 19 15 24 12 4 -3 8 0 8 6 0 14 43 30
51 19 8 -13 139 48 139 65 0 18 60 42 128 51 28 4 52 11 52 17 0 5 -4 6 -10 3
-5 -3 -10 -1 -10 4 0 14 -20 14 -40 1z"/>
<path d="M3536 3144 c7 -27 49 -89 117 -173 21 -25 61 -92 90 -148 28 -56 56
-99 61 -96 5 4 6 1 3 -4 -4 -6 0 -24 8 -39 19 -37 64 -185 62 -204 -1 -8 6
-49 16 -90 20 -88 41 -315 31 -332 -4 -6 -8 -36 -10 -67 -4 -94 -25 -214 -39
-226 -16 -12 -36 -81 -29 -99 3 -7 -2 -19 -11 -26 -8 -7 -15 -20 -15 -29 0
-10 -12 -33 -26 -52 -33 -44 -75 -125 -68 -132 11 -10 -17 -47 -36 -47 -10 0
-21 -9 -25 -19 -3 -11 -23 -36 -45 -57 -21 -21 -37 -41 -34 -45 2 -4 -10 -18
-26 -31 -17 -13 -71 -62 -120 -110 -49 -49 -96 -88 -106 -88 -9 0 -37 -16 -60
-36 -25 -20 -49 -32 -55 -28 -7 4 -9 3 -5 -4 4 -6 -1 -10 -12 -9 -9 0 -31 -9
-47 -21 -17 -12 -41 -24 -55 -27 -14 -2 -43 -9 -65 -13 -22 -5 -51 -14 -64
-21 -50 -27 -230 -64 -259 -54 -10 4 -13 2 -8 -5 6 -11 -52 -16 -124 -12 -14
1 -74 3 -135 5 -144 3 -285 32 -285 59 0 14 -5 17 -22 13 -31 -7 -121 23 -152
51 -15 12 -34 22 -43 22 -9 0 -25 8 -35 17 -11 9 -24 18 -31 19 -15 2 -121 66
-125 76 -2 4 -18 12 -36 18 -20 6 -50 31 -75 62 -23 28 -59 64 -80 80 -21 15
-48 48 -59 72 -12 24 -44 71 -72 105 -38 46 -50 68 -50 94 0 32 -29 77 -51 77
-5 0 -17 17 -25 38 -8 20 -22 51 -30 69 -8 17 -19 53 -24 80 -5 26 -17 73 -25
103 -19 62 -19 67 -10 96 7 23 -20 59 -36 49 -5 -4 -9 -1 -9 6 0 9 -3 10 -10
3 -13 -13 39 -265 75 -364 35 -95 59 -154 86 -205 12 -22 35 -65 51 -97 16
-31 39 -63 51 -71 12 -8 51 -43 87 -77 36 -34 81 -74 100 -89 20 -14 61 -48
93 -75 31 -28 64 -51 72 -52 17 -3 58 -33 124 -91 26 -24 50 -40 54 -37 3 3
14 -3 25 -14 11 -11 46 -24 83 -31 35 -6 89 -20 119 -31 79 -28 211 -42 400
-43 168 -1 225 7 420 60 147 40 333 138 318 168 -1 5 4 11 12 15 84 39 116 60
187 123 100 89 213 215 206 232 -2 7 4 19 14 27 20 15 38 40 53 77 6 13 22 37
35 53 14 16 25 42 25 57 0 16 9 40 20 54 11 14 20 31 20 39 0 7 9 39 20 71 21
63 42 167 42 207 0 14 4 30 8 35 22 29 28 289 10 395 -23 138 -75 301 -130
412 -16 32 -31 70 -33 84 -2 13 -13 31 -25 40 -12 8 -20 20 -17 25 4 5 0 12
-8 15 -9 3 -18 16 -21 29 -6 23 -183 215 -199 215 -4 0 -4 -12 -1 -26z"/>
<path d="M2099 2871 c-104 -105 -130 -137 -154 -191 -15 -36 -41 -80 -56 -98
-33 -37 -36 -50 -14 -58 16 -6 165 99 165 116 0 4 -8 10 -17 13 -14 3 -5 16
42 61 68 65 103 91 111 83 3 -3 -3 -16 -15 -28 -12 -14 -21 -36 -21 -55 0 -18
-3 -35 -8 -38 -4 -2 -23 -25 -41 -51 -52 -73 -4 -40 63 43 68 84 92 99 137 83
47 -16 57 -14 61 14 3 24 5 23 38 -22 36 -48 83 -83 96 -70 4 3 -10 25 -30 48
-21 22 -46 59 -55 82 -10 23 -36 62 -58 87 -21 25 -49 60 -62 78 -12 17 -30
32 -39 31 -9 -1 -74 -58 -143 -128z"/>
<path d="M2633 2814 c-48 -65 -123 -149 -166 -188 -54 -50 -85 -87 -104 -126
-41 -88 -80 -138 -116 -151 -31 -11 -65 -53 -121 -149 -5 -8 18 10 50 41 33
31 87 75 122 98 50 34 61 45 52 56 -12 14 -11 15 137 175 46 49 64 49 39 1
-27 -52 -18 -54 34 -11 28 24 53 41 55 38 2 -2 -13 -29 -35 -59 -22 -29 -40
-63 -40 -75 0 -11 -27 -58 -61 -105 l-60 -84 112 118 c120 127 152 139 97 38
l-30 -56 90 94 c88 94 89 95 84 138 -2 24 -1 43 4 43 5 0 31 -18 58 -40 27
-22 50 -39 52 -37 2 2 -4 28 -14 58 -11 30 -22 68 -26 84 -7 30 -7 30 38 -15
30 -29 46 -53 46 -69 0 -15 14 -38 39 -61 35 -33 61 -69 61 -84 0 -3 -8 -6
-17 -6 -14 -1 -9 -8 16 -30 39 -33 48 -33 31 2 -11 21 -10 20 18 -5 21 -20 31
-25 34 -15 3 9 16 5 47 -16 23 -16 44 -26 48 -22 9 9 -53 72 -100 102 -24 16
-60 59 -101 123 -65 100 -250 311 -272 311 -7 0 -52 -52 -101 -116z"/>
<path d="M2118 2601 c-69 -72 -132 -140 -139 -153 l-12 -23 24 20 c13 11 50
44 82 74 59 54 83 62 53 17 -25 -39 -19 -50 15 -24 78 58 76 58 51 15 -12 -21
-22 -44 -22 -50 1 -18 79 72 102 117 l20 38 34 -33 c18 -18 36 -30 39 -28 8 8
-93 159 -107 159 -7 0 -70 -58 -140 -129z"/>
<path d="M1719 2497 c-164 -156 -264 -242 -292 -253 -21 -7 -42 -29 -66 -67
-20 -32 -51 -79 -70 -105 l-35 -47 70 64 c38 36 74 71 81 79 24 29 118 92 121
82 8 -22 -23 -77 -72 -129 -28 -30 -41 -47 -28 -39 35 23 171 142 171 150 1 3
-6 8 -16 10 -13 2 -8 12 22 46 21 23 42 42 48 42 5 0 16 9 25 21 11 12 23 18
33 14 21 -8 11 -69 -21 -120 -21 -33 -21 -36 -4 -27 10 6 32 25 48 42 15 17
41 37 57 46 84 43 -32 -83 -167 -182 -57 -42 -104 -78 -104 -81 0 -5 237 154
301 203 31 24 59 41 62 37 4 -3 -12 -26 -33 -51 -22 -25 -40 -50 -40 -56 0 -6
-19 -28 -42 -48 -72 -63 -28 -42 71 33 l94 71 99 -69 c191 -131 216 -144 97
-48 -58 47 -77 70 -100 120 -28 63 -42 75 -82 75 -20 0 -22 5 -19 43 2 37 -4
52 -55 126 -32 47 -63 86 -68 88 -6 1 -44 -30 -86 -70z"/>
<path d="M2778 2518 c-26 -20 -138 -169 -138 -184 0 -7 -38 -45 -85 -85 -47
-40 -85 -74 -85 -76 0 -10 216 144 270 193 55 49 64 54 81 42 168 -119 379
-249 379 -235 0 2 -23 18 -51 36 -27 18 -61 51 -75 72 -18 29 -40 46 -88 68
-60 27 -65 32 -80 78 -26 77 -88 121 -128 91z"/>
<path d="M3356 2491 c-9 -10 -37 -26 -61 -36 -36 -13 -51 -27 -79 -73 -19 -31
-46 -68 -60 -81 -25 -24 -35 -51 -18 -51 5 0 21 14 38 31 16 17 45 40 64 51
19 12 57 42 83 66 l49 45 105 -104 c107 -106 113 -108 60 -30 -32 47 -30 47
50 -7 39 -26 50 -38 43 -47 -14 -16 122 -105 159 -105 14 0 46 -9 70 -20 62
-29 63 -25 1 19 -30 22 -69 42 -86 46 -17 3 -47 21 -65 40 -19 20 -47 48 -64
63 -16 15 -52 50 -80 78 -65 68 -152 134 -174 134 -10 0 -26 -8 -35 -19z"/>
<path d="M1222 2350 c0 -14 2 -19 5 -12 2 6 2 18 0 25 -3 6 -5 1 -5 -13z"/>
<path d="M2780 2310 c-25 -22 -77 -60 -116 -85 -39 -25 -84 -61 -99 -81 -15
-19 -30 -33 -33 -30 -6 7 -32 -13 -32 -25 0 -18 18 -8 66 36 27 25 67 55 88
67 22 11 70 40 107 65 l67 45 74 -49 c104 -70 110 -71 47 -11 -31 29 -63 65
-73 81 -22 36 -43 34 -96 -13z"/>
<path d="M3270 2283 l-65 -68 68 65 c62 60 72 70 64 70 -1 0 -32 -30 -67 -67z"/>
<path d="M3299 2224 l-34 -37 45 26 c35 20 50 23 69 16 24 -10 25 -9 6 11 -26
29 -46 25 -86 -16z"/>
<path d="M1925 2164 c-16 -14 -59 -45 -95 -68 -62 -41 -124 -96 -75 -67 25 14
132 82 166 104 25 16 27 16 80 -18 30 -19 56 -35 59 -35 3 0 -18 25 -46 55
-29 30 -54 55 -56 55 -1 -1 -16 -12 -33 -26z"/>
<path d="M2030 1800 c0 -5 18 -10 40 -10 46 0 41 29 43 -234 2 -117 5 -160 15
-163 9 -4 12 40 12 196 l0 201 40 0 c22 0 40 5 40 10 0 6 -38 10 -95 10 -57 0
-95 -4 -95 -10z"/>
<path d="M2321 1773 c-27 -110 -81 -376 -77 -380 11 -12 24 10 31 53 11 73 12
74 70 74 l54 0 12 -54 c13 -60 24 -84 34 -74 4 4 -9 73 -28 155 -20 81 -41
174 -47 206 -13 67 -35 76 -49 20z m45 -111 c-2 -1 0 -20 5 -40 5 -20 11 -45
14 -54 3 -15 -3 -18 -42 -18 -44 0 -45 0 -38 28 11 44 16 65 21 102 10 62 15
67 29 25 8 -21 13 -41 11 -43z"/>
<path d="M2470 1800 c0 -5 18 -10 40 -10 l40 0 2 -197 c2 -124 7 -198 13 -198
6 0 11 74 13 198 l2 197 40 0 c22 0 40 5 40 10 0 6 -38 10 -95 10 -57 0 -95
-4 -95 -10z"/>
<path d="M2713 1802 c-9 -6 -12 -42 -9 -137 2 -72 1 -148 -3 -170 -8 -44 7
-107 23 -102 7 2 10 26 8 59 -3 52 -2 57 26 77 17 11 32 21 35 21 3 0 17 -36
32 -80 15 -44 31 -80 36 -80 14 0 11 19 -18 102 -23 64 -26 81 -16 95 59 84
69 157 28 198 -19 20 -34 25 -77 25 -29 0 -59 -4 -65 -8z m122 -32 c10 -11 15
-20 10 -20 -4 0 -2 -7 5 -15 14 -17 -3 -83 -28 -102 -9 -7 -13 -13 -9 -13 4 0
-6 -14 -22 -31 -16 -17 -33 -30 -37 -29 -4 1 -11 -4 -16 -12 -5 -8 -8 36 -7
109 1 69 5 120 10 117 5 -3 9 0 9 5 0 20 66 12 85 -9z"/>
<path d="M3004 1796 c-18 -46 -89 -398 -81 -403 13 -8 17 0 29 66 l12 61 56 0
56 0 13 -65 c8 -41 18 -64 25 -62 13 5 15 -7 -23 157 -17 74 -37 162 -44 194
-12 59 -31 82 -43 52z m30 -98 c13 -85 15 -93 25 -120 l11 -28 -49 0 -49 0 14
63 c7 34 18 76 23 94 5 17 6 35 3 39 -4 4 -2 4 4 1 6 -4 14 -26 18 -49z"/>
<path d="M2067 899 c7 -7 15 -10 18 -7 3 3 -2 9 -12 12 -14 6 -15 5 -6 -5z"/>
</g>
</svg>
